<svg width="200" height="9" viewBox="0 0 200 9" fill="none" xmlns="http://www.w3.org/2000/svg">
<path d="M5.38011 0L10.7602 9H0L5.38011 0Z" fill="#ED820E"/>
<path d="M15.8934 0L21.2735 9H10.5133L15.8934 0Z" fill="#ED820E"/>
<path d="M26.4068 0L31.7869 9H21.0266L26.4068 0Z" fill="#ED820E"/>
<path d="M36.9201 0L42.3002 9H31.54L36.9201 0Z" fill="#ED820E"/>
<path d="M47.4334 0L52.8135 9H42.0533L47.4334 0Z" fill="#ED820E"/>
<path d="M57.9467 0L63.3268 9H52.5666L57.9467 0Z" fill="#ED820E"/>
<path d="M68.46 0L73.8401 9H63.0799L68.46 0Z" fill="#ED820E"/>
<path d="M78.9733 0L84.3535 9H73.5932L78.9733 0Z" fill="#ED820E"/>
<path d="M89.4867 0L94.8668 9H84.1066L89.4867 0Z" fill="#ED820E"/>
<path d="M100 0L105.38 9H94.6199L100 0Z" fill="#ED820E"/>
<path d="M110.513 0L115.893 9H105.133L110.513 0Z" fill="#ED820E"/>
<path d="M121.027 0L126.407 9H115.647L121.027 0Z" fill="#ED820E"/>
<path d="M131.54 0L136.92 9H126.16L131.54 0Z" fill="#ED820E"/>
<path d="M142.053 0L147.433 9H136.673L142.053 0Z" fill="#ED820E"/>
<path d="M152.567 0L157.947 9H147.186L152.567 0Z" fill="#ED820E"/>
<path d="M163.08 0L168.46 9H157.7L163.08 0Z" fill="#ED820E"/>
<path d="M173.593 0L178.973 9H168.213L173.593 0Z" fill="#ED820E"/>
<path d="M184.107 0L189.487 9H178.726L184.107 0Z" fill="#ED820E"/>
<path d="M194.62 0L200 9H189.24L194.62 0Z" fill="#ED820E"/>
</svg>
